<svg xmlns="http://www.w3.org/2000/svg" viewBox="0 0 349 82"><style>:root { --primary : #ffffff; }</style><title>Network Logo</title><desc>Network Logo for CARAN AND DDRIVER</desc><path style="fill:var(--primary, #000);fill-opacity:var(--secondary, 1);" d="M37.381.448v30.414H11.64L0 50.99h37.381v30.266h20.967V.448H37.38Zm51.036 29.967V.447h11.267v10.139h5.297V.447h11.267v29.968h-11.267V19.233h-5.297v11.181H88.417Zm49.245 0V.447h22.458v7.678h-11.117v3.28H159.3v7.679h-10.297v3.503h11.49v7.753h-22.831v.075Zm40.664 0L188.25.447h15.221l9.476 29.968h-12.386l-1.045-4.771h-8.73l-1.119 4.77h-11.341Zm19.549-12.077L195.263 6.56l-2.76 11.778h5.372Zm33.501 12.076V.448h15.296c8.207 0 12.087 1.64 12.087 7.604 0 3.653-2.014 5.963-5.894 7.007 4.029.671 4.999 2.46 5.521 6.784l.373 3.205c.149 1.342.522 3.131 1.045 5.293h-11.416c-.373-1.49-.672-2.833-.895-4.174l-.299-2.237c-.448-3.28-.821-4.547-3.507-4.547-.298 0-.671 0-1.044.074V30.34h-11.267v.075Zm11.267-17.592c.298.074.597.074.82.074 2.686 0 4.104-1.192 4.104-3.056s-1.119-2.684-3.656-2.684c-.373 0-.821 0-1.268.075v5.59Zm34.993 7.976h10.745v.224c0 2.013.895 2.982 2.835 2.982 1.716 0 2.761-.895 2.761-2.162 0-.97-.448-1.715-1.194-2.087-1.567-.746-4.253-1.193-7.76-2.311-4.85-1.566-7.088-3.877-7.088-8.126.074-5.814 4.85-9.318 13.579-9.318 7.909 0 12.162 2.982 12.162 8.2v.596h-9.923c-.149-1.789-.97-2.683-2.612-2.683-1.567 0-2.462.894-2.462 2.012 0 2.088 2.089 2.013 5.894 3.057 6.94 1.864 10.297 3.802 10.297 9.243 0 6.337-5.074 10.437-13.729 10.437-8.804 0-13.43-3.355-13.43-9.02-.149-.298-.149-.671-.075-1.044ZM348.295.448v7.976h-7.237v21.99h-11.565V8.424h-7.163V.447h25.965ZM137.96 51.734h5.969V68.88c0 5.069 1.642 8.349 6.193 8.349s6.193-3.28 6.193-8.35V51.735h5.969V70.67c0 7.976-4.477 11.182-12.087 11.182-7.611 0-12.088-3.28-12.088-11.182V51.735h-.149Zm54.318 4.696h-8.506v-4.696h22.907v4.697h-8.506v24.973h-5.969V56.43h.074Zm52.901-5.217c9.327 0 14.55 6.261 14.55 15.282 0 9.02-5.148 15.43-14.55 15.43-9.55 0-14.549-6.336-14.549-15.43 0-9.095 5.074-15.282 14.549-15.282Zm0 26.016c6.119 0 8.357-5.367 8.357-10.734 0-5.219-2.387-10.586-8.357-10.586-5.894 0-8.356 5.367-8.356 10.586 0 5.367 2.238 10.734 8.356 10.734ZM101.996 57.698h.075l8.431 23.407.075.299h6.64l-11.714-29.67h-6.715l-11.565 29.67h6.193l8.58-23.706Zm177.73 15.729h4.849v.15c0 1.267.448 2.31 1.418 3.13.97.82 2.612 1.268 4.85 1.268 2.014 0 3.656-.522 4.924-1.491 1.269-.97 1.866-2.162 1.866-3.43 0-1.789-1.194-3.056-3.656-3.801l-2.537-.746-1.642-.522-3.357-1.043c-3.806-1.417-5.745-3.802-5.745-7.082 0-2.311.895-4.324 2.76-6.038 1.866-1.715 4.626-2.61 8.282-2.61 3.582 0 6.193.746 7.76 2.237 1.567 1.49 2.313 3.13 2.313 4.92v.075h-4.85v-.075c0-.97-.522-1.715-1.492-2.31-.97-.597-2.313-.82-3.88-.82-1.94 0-3.432.372-4.477 1.192-1.044.82-1.567 1.789-1.567 2.982 0 .894.373 1.64 1.045 2.236.672.596 1.791 1.044 3.432 1.49l2.313.672 1.716.522c2.388.67 3.88 1.118 4.402 1.416.597.298 1.12.596 1.717 1.044.82.67 1.492 1.416 1.865 2.31.373.895.597 1.939.597 3.132 0 2.758-.97 5.069-2.985 6.932-2.014 1.864-4.85 2.833-8.655 2.833-2.387 0-4.402-.373-5.969-1.044-1.567-.745-2.835-1.714-3.805-2.981-.97-1.268-1.418-2.684-1.418-4.399v-.149h-.074Z"/></svg>
